# Blender 4.1.1
# www.blender.org
mtllib Bush.mtl
o Bush_1
v -0.473081 0.611962 0.526088
v 0.024986 0.620561 0.702021
v 0.484454 0.633920 -0.562045
v -0.046226 0.620360 -0.752317
v -0.570132 1.007543 0.017244
v -0.507290 0.995659 -0.463148
v 0.530500 0.629611 -0.021374
v -0.567972 0.617965 -0.539125
v -0.052468 1.148084 -0.358213
v -0.034918 1.205483 -0.008525
v -0.071486 0.969922 -0.676602
v -0.000059 0.973662 0.669954
v 0.395608 0.984050 -0.490444
v 0.386282 0.984670 0.436185
v 0.048666 -0.023293 0.607675
v -0.552784 0.362494 -0.545136
v 0.643561 0.403176 -0.017812
v -0.023610 0.419705 -0.780921
v 0.489806 0.425103 -0.556387
v 0.046684 0.437200 0.745131
v -0.433482 0.431657 0.529571
v -0.624299 0.196199 0.041532
v 0.563340 0.212216 -0.598497
v 0.560362 0.194027 0.532476
v 0.056671 0.222151 0.797355
v -0.013556 0.205962 -0.845013
v -0.555421 0.189761 -0.546951
v 0.395010 0.836740 0.492296
v 0.448320 0.801400 -0.532943
v 0.014674 0.776620 0.716143
v -0.064894 0.793689 -0.771739
v -0.519203 0.824371 -0.502098
v -0.596777 0.794680 0.008018
v -0.432027 0.763208 0.479010
v 0.490441 0.837804 -0.014963
v 0.630772 0.203880 -0.017555
v -0.439580 0.231085 0.556013
v -0.608716 0.360490 0.032242
v 0.553436 0.401088 0.537434
v 0.010109 -0.036265 -0.295008
v 0.443294 0.987642 -0.020829
v -0.020793 1.171504 0.351636
v 0.437854 0.634848 0.493511
v -0.415869 0.955912 0.454579
v -0.617858 0.605201 0.019143
v -0.376360 0.628105 -0.741668
v -0.379400 0.753211 0.449917
v 0.010517 0.758780 0.688269
v 0.410016 0.779270 -0.506921
v -0.050847 0.769903 -0.731185
v -0.489776 0.773546 -0.487460
v 0.452727 0.793526 -0.018924
v -0.349623 0.976938 -0.614421
v -0.282558 1.113912 0.394709
v -0.010450 1.107122 0.488626
v 0.193627 1.081120 -0.375529
v -0.062389 1.089020 -0.503082
v -0.307441 1.101838 -0.366470
v 0.275247 1.137230 -0.022835
v -0.042901 1.173932 -0.214662
v -0.593337 0.813426 -0.262023
v -0.271797 0.744950 0.652046
v 0.212441 0.963316 -0.622360
v 0.265512 0.828645 0.644604
v 0.443147 0.986799 -0.268736
v 0.663226 0.207331 -0.316524
v -0.278373 0.239331 0.727652
v 0.416422 0.200873 0.753683
v 0.330709 0.213578 -0.773810
v -0.332123 0.196692 -0.718795
v -0.635144 0.189450 -0.258928
v -0.435857 0.023325 -0.500134
v 0.462812 0.027096 0.578722
v -0.011196 0.031370 -0.729317
v 0.444942 0.025010 -0.540075
v 0.057768 0.039497 0.782423
v -0.341023 0.401337 -0.718318
v -0.286424 0.616761 0.686680
v 0.308677 0.634947 0.663073
v 0.280327 0.630066 -0.740252
v 0.551782 0.632746 -0.301621
v -0.635877 0.608041 -0.266089
v -0.602137 0.431013 -0.569516
v 0.531976 0.474336 0.545550
v -0.040592 0.462530 -0.826637
v 0.510438 0.463957 -0.580075
v 0.040288 0.467516 0.845013
v -0.645763 0.419672 0.024054
v -0.270282 0.447888 0.690436
v 0.385380 0.402605 0.735153
v 0.299744 0.424970 -0.736863
v 0.634197 0.403622 -0.315381
v -0.613402 0.357150 -0.261319
v -0.488507 0.022648 -0.041452
v -0.526549 0.352370 0.029933
v 0.048917 0.392631 0.720387
v 0.465212 0.383106 -0.530405
v -0.009883 0.370764 -0.762050
v 0.488568 0.355612 0.489045
v -0.461362 0.345800 -0.490904
v -0.373237 0.805157 -0.701658
v -0.584517 1.016160 -0.244051
v -0.271511 0.945000 0.588333
v 0.255826 0.789720 -0.709794
v 0.278916 0.988340 0.600155
v 0.486000 0.833991 -0.283916
v 0.436698 0.869186 0.518775
v 0.476987 0.845425 -0.554258
v 0.014055 0.825546 0.713601
v -0.076159 0.841047 -0.805320
v -0.577429 0.859478 -0.526615
v -0.604499 0.850956 0.007820
v -0.509099 0.770002 0.005012
v 0.373378 0.790736 0.457713
v -0.359432 1.161296 0.010193
v 0.260058 1.130786 0.359620
v 0.559439 0.002618 -0.086471
v 0.663867 0.464189 -0.019403
v -0.480035 0.446584 0.550153
v -0.372360 0.033552 0.613726
v -0.443861 0.395443 0.546364
v 0.622097 0.365882 -0.015347
v 0.531646 0.868541 -0.013820
v -0.447730 0.807441 0.489398
v -0.510346 0.791714 0.260825
v 0.447099 0.838745 0.256951
v 0.610695 0.198999 0.271111
v -0.552724 0.210877 0.322223
v -0.530132 0.391650 0.304422
v 0.609353 0.403156 0.272456
v 0.031484 -0.028652 0.245541
v 0.425817 0.988877 0.230320
v -0.030456 1.165267 0.195436
v 0.522429 0.638455 0.260054
v -0.469880 0.972413 0.251559
v -0.548422 0.606059 0.286903
v -0.332370 0.773781 -0.657491
v -0.232820 0.752396 0.578105
v 0.247176 0.769470 -0.685097
v 0.279436 0.776813 0.647269
v -0.545940 0.771074 -0.252468
v 0.450589 0.790866 -0.276033
v -0.346413 1.140592 -0.213608
v -0.205088 1.066670 0.501620
v 0.174702 1.061708 0.455894
v 0.268484 1.137776 -0.243337
v 0.123766 1.043991 -0.488002
v -0.245535 1.046086 -0.467659
v -0.294099 0.066671 -0.697632
v -0.585239 0.048462 -0.269581
v 0.603935 0.061128 -0.320895
v 0.291929 0.058923 -0.751559
v 0.327049 0.075355 0.704327
v -0.219604 0.094282 0.724211
v -0.399655 0.449844 -0.792229
v -0.311316 0.457222 0.750853
v 0.370431 0.476867 0.729860
v 0.300678 0.465277 -0.761172
v 0.664214 0.461441 -0.328021
v -0.632107 0.422734 -0.270356
v -0.266795 0.412992 0.703697
v 0.369207 0.357637 0.692479
v 0.292702 0.383629 -0.703967
v 0.609772 0.370907 -0.302854
v -0.519091 0.343817 -0.243619
v -0.304028 0.356482 -0.675507
v -0.407374 0.852145 -0.730131
v -0.664214 0.856945 -0.269128
v -0.303390 0.788768 0.693351
v 0.269925 0.834245 -0.742555
v 0.307803 0.857595 0.704064
v 0.520965 0.863410 -0.291148
v -0.499278 0.756131 0.263078
v 0.440169 0.791274 0.243553
v -0.303736 1.115486 0.222708
v 0.260880 1.124913 0.191595
v 0.529341 0.007188 0.279203
v 0.589686 0.468782 0.276017
v -0.606248 0.425086 0.315754
v -0.424037 0.037624 0.313699
v -0.470015 0.375797 0.293533
v 0.550022 0.362788 0.255982
v 0.521799 0.865866 0.274475
v -0.574378 0.827047 0.279586
vn -0.8796 0.1045 0.4640
vn -0.6481 0.1363 0.7492
vn -0.5015 0.6441 0.5776
vn -0.7532 0.6192 0.2220
vn -0.2132 0.6555 0.7244
vn 0.0649 0.6847 0.7259
vn 0.1424 0.1127 0.9834
vn -0.0457 0.6352 0.7710
vn 0.9539 0.1719 -0.2458
vn 0.6457 0.1741 -0.7434
vn 0.6092 0.5342 -0.5861
vn 0.8344 0.5082 -0.2134
vn 0.0207 0.4265 -0.9042
vn -0.0192 0.4254 -0.9048
vn -0.2495 0.1279 -0.9599
vn 0.0232 0.3726 -0.9277
vn -0.8961 0.1720 0.4092
vn -0.5451 0.7629 0.3476
vn -0.4680 0.8820 0.0548
vn -0.9757 0.2105 0.0607
vn -0.8212 0.4635 -0.3328
vn -0.3744 0.9017 -0.2163
vn -0.1851 0.9331 -0.3084
vn -0.5341 0.5672 -0.6269
vn 0.7644 0.6184 0.1823
vn 0.7764 0.6268 0.0660
vn 0.9033 0.4288 -0.0119
vn 0.8800 0.4748 0.0103
vn -0.7116 0.2375 -0.6613
vn -0.9702 -0.0142 -0.2418
vn -0.8494 0.4911 -0.1934
vn -0.6326 0.5218 -0.5723
vn 0.2456 0.9510 -0.1876
vn 0.2464 0.8914 -0.3803
vn -0.1333 0.8313 -0.5396
vn -0.1709 0.9716 -0.1636
vn 0.2175 0.9735 0.0705
vn 0.2054 0.9662 -0.1558
vn -0.1399 0.9852 -0.0993
vn -0.1570 0.9683 0.1944
vn -0.1384 0.7024 -0.6982
vn -0.2894 0.7962 -0.5313
vn 0.1081 0.8822 -0.4584
vn 0.1503 0.6959 -0.7022
vn 0.1558 0.6355 0.7563
vn 0.2894 0.7788 0.5566
vn -0.2803 0.6539 0.7027
vn -0.3028 0.2427 0.9216
vn 0.4346 0.5744 -0.6937
vn 0.1925 0.8900 -0.4134
vn 0.3871 0.9172 -0.0944
vn 0.8122 0.5568 -0.1738
vn 0.7504 0.6420 0.1572
vn 0.7079 0.6902 0.1501
vn 0.3517 0.9123 0.2099
vn 0.6748 0.6010 0.4284
vn -0.1335 -0.9908 0.0210
vn 0.1214 -0.9926 0.0089
vn 0.2157 -0.9225 0.3202
vn -0.1005 -0.8067 0.5824
vn -0.0278 -0.9676 -0.2510
vn -0.1502 -0.9874 -0.0507
vn -0.7912 -0.6040 -0.0960
vn -0.1892 -0.8831 -0.4294
vn 0.8651 -0.4912 0.1019
vn 0.7962 -0.6044 -0.0260
vn 0.9482 -0.3163 -0.0303
vn 0.9438 -0.3112 0.1112
vn 0.1329 -0.3239 -0.9367
vn -0.0923 -0.7263 -0.6812
vn -0.0879 -0.7430 -0.6634
vn 0.1240 -0.5145 -0.8485
vn 0.6325 -0.6402 -0.4360
vn 0.5659 -0.5702 -0.5955
vn 0.5359 -0.6284 -0.5639
vn 0.7307 -0.4845 -0.4810
vn -0.0774 -0.4869 0.8700
vn -0.0239 -0.4862 0.8735
vn 0.1299 -0.9464 0.2956
vn -0.0813 -0.9552 0.2847
vn -0.9490 0.3064 0.0744
vn -0.6442 0.4659 0.6066
vn -0.2064 -0.9525 0.2240
vn -0.1930 -0.9485 0.2514
vn -0.8271 0.5313 0.1831
vn -0.7999 0.5999 0.0154
vn -0.7770 -0.6281 0.0422
vn -0.7761 -0.5877 0.2286
vn 0.5033 0.5534 -0.6636
vn 0.8952 0.3186 -0.3116
vn 0.7043 -0.5752 -0.4161
vn 0.5075 -0.5324 -0.6775
vn 0.8806 0.4391 0.1779
vn 0.7664 0.4204 0.4857
vn 0.7905 -0.3167 0.5242
vn 0.9101 -0.3789 0.1680
vn 0.1237 0.4130 0.9023
vn -0.1671 0.3994 0.9014
vn -0.2200 -0.0808 0.9722
vn 0.0852 -0.4166 0.9051
vn -0.2733 0.4374 -0.8567
vn 0.1726 0.4398 -0.8813
vn -0.0109 -0.5525 -0.8335
vn -0.3504 -0.2494 -0.9028
vn -0.7984 0.5604 -0.2204
vn -0.5205 0.5487 -0.6542
vn -0.4995 -0.5477 -0.6712
vn -0.9176 -0.3056 -0.2543
vn 0.8314 -0.5259 0.1795
vn 0.5231 -0.8300 0.1935
vn 0.4403 -0.8350 0.3300
vn 0.7395 -0.5906 0.3231
vn 0.4663 -0.7572 -0.4575
vn 0.5480 -0.6256 -0.5552
vn 0.6441 -0.7649 0.0026
vn 0.5170 -0.8553 0.0337
vn 0.3073 -0.8217 0.4800
vn 0.2636 0.0534 0.9631
vn -0.2231 0.0478 0.9736
vn -0.0284 -0.8400 0.5418
vn -0.1418 -0.8642 -0.4827
vn -0.1987 -0.5979 -0.7765
vn 0.1421 -0.6154 -0.7753
vn 0.0914 -0.8448 -0.5272
vn -0.7972 -0.5396 -0.2708
vn -0.4515 -0.8741 -0.1793
vn -0.6187 -0.6838 -0.3867
vn -0.7031 -0.5402 -0.4623
vn -0.2675 -0.9602 0.0802
vn -0.9861 -0.1350 0.0974
vn -0.9905 -0.1360 -0.0221
vn -0.2697 -0.9623 0.0346
vn -0.1619 -0.9857 0.0459
vn -0.6961 -0.3889 0.6035
vn -0.8861 -0.3777 0.2687
vn -0.1446 -0.9865 0.0774
vn 0.7725 -0.6350 -0.0038
vn 0.5979 -0.8016 0.0015
vn 0.5933 -0.7990 0.0973
vn 0.7596 -0.6497 0.0308
vn 0.9977 0.0540 -0.0418
vn 0.9332 0.3522 0.0709
vn 0.9304 -0.3575 0.0810
vn 0.9214 -0.3765 0.0957
vn -0.7293 0.0212 0.6839
vn -0.8107 0.4678 0.3519
vn -0.9478 -0.2759 0.1595
vn -0.7270 -0.0472 0.6850
vn -0.0975 -0.9948 0.0284
vn -0.0935 -0.9858 0.1398
vn -0.8487 -0.5140 0.1245
vn -0.8487 -0.5286 0.0196
vn 0.4201 -0.8708 0.2552
vn 0.5185 -0.8489 0.1028
vn 0.9465 0.2554 0.1974
vn 0.7539 0.1500 0.6396
vn -0.1253 -0.9920 -0.0158
vn -0.1386 -0.9796 -0.1458
vn 0.0353 -0.9825 -0.1831
vn 0.1491 -0.9657 -0.2127
vn 0.0663 -0.9977 0.0114
vn -0.1081 -0.9940 0.0183
vn 0.8032 0.5957 -0.0025
vn 0.6649 0.7467 -0.0185
vn 0.6302 0.7754 0.0400
vn 0.8005 0.5970 0.0528
vn 0.0933 0.7679 0.6337
vn 0.1364 0.9895 -0.0479
vn -0.2093 0.9772 0.0347
vn -0.1561 0.8893 0.4298
vn 0.6326 0.5483 0.5470
vn 0.8697 0.3749 0.3209
vn 0.8496 0.4236 0.3143
vn 0.7750 0.2255 0.5903
vn -0.6353 0.3029 0.7104
vn -0.4692 0.6303 0.6185
vn -0.6952 0.6775 0.2400
vn -0.8060 0.2935 0.5140
vn -0.9881 0.1474 -0.0443
vn -0.9571 0.1505 0.2477
vn -0.8306 0.5534 0.0614
vn -0.8761 0.4783 0.0601
vn -0.9020 0.3322 0.2759
vn -0.7258 0.3512 0.5915
vn -0.5039 0.6523 0.5662
vn -0.7892 0.3397 0.5117
vn -0.0501 0.3794 0.9239
vn 0.2799 0.4643 0.8403
vn 0.1280 0.1358 0.9824
vn -0.4130 0.0473 0.9095
vn 0.7209 0.5401 -0.4344
vn 0.6438 0.1774 -0.7444
vn 0.5942 0.4141 -0.6895
vn 0.8170 0.5506 -0.1712
vn 0.1852 0.1462 -0.9718
vn -0.1014 0.2837 -0.9535
vn -0.0160 0.5039 -0.8636
vn 0.1515 0.1429 -0.9781
vn -0.7910 0.5956 0.1401
vn -0.5874 0.7456 0.3147
vn -0.5884 0.8013 -0.1084
vn -0.8883 0.4131 0.2005
vn -0.8015 0.5362 -0.2649
vn -0.4062 0.8557 -0.3205
vn -0.1669 0.8169 -0.5522
vn -0.5410 0.6927 -0.4770
vn 0.9290 0.3697 0.0150
vn 0.8357 0.5491 -0.0040
vn 0.8453 0.5296 0.0701
vn 0.9027 0.4276 0.0469
vn -0.7230 0.2743 -0.6341
vn -0.9767 0.1935 -0.0925
vn -0.8511 0.4861 -0.1983
vn -0.6311 0.5110 -0.5836
vn 0.0658 0.9031 -0.4243
vn 0.2103 0.8820 -0.4218
vn -0.2771 0.8962 -0.3464
vn -0.1061 0.9571 -0.2697
vn 0.1372 0.9724 0.1887
vn 0.1152 0.9933 -0.0011
vn -0.1085 0.9833 -0.1463
vn -0.1175 0.9640 0.2386
vn -0.1341 0.7064 -0.6950
vn -0.0636 0.9194 -0.3881
vn 0.2375 0.7950 -0.5581
vn 0.1396 0.7074 -0.6929
vn 0.0003 0.2827 0.9592
vn 0.0573 0.9060 0.4194
vn -0.1258 0.7955 0.5927
vn -0.1179 0.5704 0.8128
vn 0.4545 0.7070 -0.5418
vn 0.1931 0.8922 -0.4083
vn 0.4920 0.6639 -0.5632
vn 0.8165 0.5480 -0.1819
vn 0.7965 0.5409 0.2701
vn 0.6394 0.7685 -0.0237
vn 0.2967 0.6316 0.7163
vn 0.6711 0.5465 0.5010
vn -0.1423 -0.9898 0.0111
vn 0.0661 -0.9945 0.0808
vn 0.1390 -0.8648 0.4825
vn -0.2503 -0.9069 0.3389
vn -0.4511 -0.7822 -0.4297
vn -0.1327 -0.9904 -0.0389
vn -0.9334 -0.2945 -0.2049
vn -0.5627 -0.6055 -0.5628
vn 0.5323 -0.8362 0.1319
vn 0.8645 -0.5006 -0.0458
vn 0.8880 -0.4599 0.0051
vn 0.9354 0.2678 0.2307
vn 0.1720 -0.6312 -0.7563
vn -0.2396 -0.4071 -0.8814
vn -0.0216 -0.8436 -0.5365
vn 0.1407 -0.6959 -0.7042
vn 0.6329 -0.6396 -0.4363
vn 0.5390 -0.6483 -0.5377
vn 0.5893 -0.4272 -0.6857
vn 0.6729 -0.6113 -0.4166
vn -0.1489 0.3382 0.9292
vn -0.0116 -0.6861 0.7274
vn 0.0374 0.0785 0.9962
vn -0.0101 -0.9892 0.1459
vn -0.2031 -0.9453 0.2552
vn -0.6611 0.2079 0.7209
vn -0.0313 -0.9908 0.1318
vn -0.3528 -0.8953 0.2721
vn -0.8739 0.4637 0.1462
vn -0.8483 0.5280 -0.0396
vn -0.8800 -0.3368 0.3350
vn -0.7382 -0.6549 0.1616
vn 0.6479 0.4088 -0.6427
vn 0.7060 0.5719 -0.4178
vn 0.8818 -0.3481 -0.3184
vn 0.7574 -0.2751 -0.5921
vn 0.9006 0.3566 0.2485
vn 0.7675 0.4608 0.4457
vn 0.4328 -0.5796 0.6905
vn 0.8674 -0.4453 0.2223
vn 0.1337 0.3951 0.9089
vn -0.0433 0.1394 0.9893
vn -0.2078 -0.1072 0.9723
vn 0.2871 -0.0763 0.9549
vn -0.3587 0.3023 -0.8831
vn 0.1557 0.4049 -0.9010
vn 0.2029 -0.1891 -0.9608
vn -0.1603 -0.5468 -0.8218
vn -0.7782 0.6026 -0.1768
vn -0.7357 0.2946 -0.6099
vn -0.7377 -0.3131 -0.5982
vn -0.6952 -0.6075 -0.3842
vn 0.9319 -0.2179 0.2901
vn 0.3272 -0.9428 0.0644
vn 0.3571 -0.9143 0.1912
vn 0.7353 0.2303 0.6374
vn 0.3423 -0.9020 -0.2632
vn 0.5559 -0.5996 -0.5757
vn 0.8121 -0.5755 -0.0964
vn 0.7597 -0.6423 -0.1012
vn 0.1443 0.0894 0.9855
vn 0.1126 -0.9226 0.3691
vn 0.0310 -0.6737 0.7384
vn 0.0578 -0.9959 -0.0699
vn -0.1341 -0.8744 -0.4664
vn -0.1951 -0.6080 -0.7696
vn 0.1385 -0.5507 -0.8231
vn 0.0934 -0.7857 -0.6115
vn -0.6394 -0.7519 -0.1607
vn -0.5019 -0.8465 -0.1775
vn -0.3967 -0.8675 -0.3002
vn -0.3394 -0.8862 -0.3154
vn -0.9550 -0.2958 0.0204
vn -0.4460 -0.8837 0.1421
vn -0.5278 -0.8440 0.0956
vn -0.6583 -0.7503 -0.0605
vn 0.0562 -0.9959 -0.0706
vn -0.5791 -0.7400 0.3421
vn -0.4344 -0.8826 0.1797
vn -0.9176 -0.2668 0.2945
vn 0.7613 -0.6484 0.0004
vn 0.6425 -0.7662 -0.0106
vn 0.3407 -0.9402 0.0029
vn 0.9703 -0.1855 0.1553
vn 0.9477 0.3008 0.1064
vn 0.9652 0.0482 0.2569
vn 0.9200 -0.3878 0.0574
vn 0.9293 -0.3591 0.0868
vn -0.6652 0.1454 0.7324
vn -0.9943 -0.0198 0.1044
vn -0.7263 -0.5591 0.3998
vn -0.5102 -0.2264 0.8298
vn -0.1425 -0.9897 0.0135
vn -0.2297 -0.9639 0.1349
vn -0.3669 -0.9063 0.2097
vn -0.9588 -0.2800 -0.0474
vn 0.5663 -0.6653 0.4865
vn 0.5366 -0.8359 0.1157
vn 0.9413 0.2712 0.2008
vn 0.7389 0.1947 0.6450
vn -0.2029 -0.9789 -0.0247
vn -0.0239 -0.9727 -0.2306
vn 0.0780 -0.9845 -0.1571
vn 0.1635 -0.9856 0.0438
vn 0.0706 -0.9973 0.0183
vn -0.1340 -0.9888 0.0660
vn 0.8416 0.5385 -0.0424
vn 0.6537 0.7568 -0.0030
vn 0.6618 0.7446 0.0871
vn 0.7823 0.6221 0.0325
vn 0.2838 0.8759 0.3902
vn 0.1443 0.9889 -0.0339
vn -0.1818 0.9829 -0.0280
vn -0.1152 0.8751 0.4701
vn 0.6922 0.4931 0.5270
vn 0.8263 0.5383 0.1658
vn 0.8376 0.4792 0.2624
vn 0.7971 0.4276 0.4264
vn -0.6862 0.4970 0.5311
vn -0.4782 0.6677 0.5706
vn -0.6415 0.7623 0.0860
vn -0.7623 0.5964 0.2513
vn -0.9978 -0.0217 0.0628
vn -0.9397 0.3196 0.1214
vn -0.9120 0.3360 0.2354
vn -0.8238 0.5540 0.1202
s 0
usemtl Green
f 1//1 179//1 119//1
f 119//2 78//2 1//2
f 1//3 138//3 47//3
f 47//4 136//4 1//4
f 2//5 156//5 87//5
f 87//6 79//6 2//6
f 2//7 140//7 48//7
f 2//8 138//8 78//8
f 81//9 86//9 3//9
f 3//10 158//10 80//10
f 3//11 139//11 49//11
f 49//12 81//12 3//12
f 80//13 85//13 4//13
f 85//14 46//14 4//14
f 4//15 137//15 50//15
f 4//16 139//16 80//16
f 112//17 135//17 5//17
f 135//18 115//18 5//18
f 5//19 143//19 102//19
f 102//20 112//20 5//20
f 6//21 168//21 102//21
f 102//22 58//22 6//22
f 6//23 148//23 53//23
f 53//24 111//24 6//24
f 7//25 178//25 118//25
f 118//26 81//26 7//26
f 7//27 142//27 52//27
f 7//28 174//28 134//28
f 46//29 83//29 8//29
f 8//30 160//30 82//30
f 82//31 51//31 8//31
f 8//32 137//32 46//32
f 60//33 56//33 9//33
f 9//34 147//34 57//34
f 9//35 148//35 58//35
f 58//36 60//36 9//36
f 10//37 176//37 59//37
f 59//38 60//38 10//38
f 10//39 143//39 115//39
f 10//40 175//40 133//40
f 110//41 53//41 11//41
f 11//42 148//42 57//42
f 11//43 147//43 63//43
f 63//44 110//44 11//44
f 12//45 171//45 105//45
f 12//46 145//46 55//46
f 12//47 144//47 103//47
f 103//48 109//48 12//48
f 108//49 63//49 13//49
f 13//50 147//50 56//50
f 56//51 65//51 13//51
f 13//52 172//52 108//52
f 14//53 183//53 132//53
f 132//54 116//54 14//54
f 14//55 145//55 105//55
f 105//56 107//56 14//56
f 120//57 131//57 15//57
f 131//58 73//58 15//58
f 15//59 153//59 76//59
f 15//60 154//60 120//60
f 77//61 100//61 16//61
f 100//62 93//62 16//62
f 16//63 160//63 83//63
f 16//64 155//64 77//64
f 130//65 122//65 17//65
f 17//66 164//66 92//66
f 92//67 118//67 17//67
f 118//68 130//68 17//68
f 91//69 98//69 18//69
f 18//70 166//70 77//70
f 77//71 85//71 18//71
f 18//72 158//72 91//72
f 92//73 97//73 19//73
f 19//74 163//74 91//74
f 91//75 86//75 19//75
f 19//76 159//76 92//76
f 20//77 161//77 96//77
f 96//78 90//78 20//78
f 20//79 157//79 87//79
f 87//80 89//80 20//80
f 21//81 181//81 121//81
f 121//82 89//82 21//82
f 21//83 156//83 119//83
f 119//84 129//84 21//84
f 128//85 95//85 22//85
f 22//86 165//86 71//86
f 71//87 94//87 22//87
f 22//88 180//88 128//88
f 69//89 97//89 23//89
f 23//90 164//90 66//90
f 23//91 151//91 75//91
f 75//92 69//92 23//92
f 127//93 99//93 24//93
f 24//94 162//94 68//94
f 68//95 73//95 24//95
f 24//96 177//96 127//96
f 25//97 162//97 96//97
f 96//98 67//98 25//98
f 25//99 154//99 76//99
f 25//100 153//100 68//100
f 26//101 166//101 98//101
f 98//102 69//102 26//102
f 26//103 152//103 74//103
f 26//104 149//104 70//104
f 71//105 100//105 27//105
f 100//106 70//106 27//106
f 70//107 72//107 27//107
f 27//108 150//108 71//108
f 114//109 126//109 28//109
f 28//110 183//110 107//110
f 107//111 64//111 28//111
f 28//112 140//112 114//112
f 29//113 139//113 104//113
f 104//114 108//114 29//114
f 29//115 172//115 106//115
f 106//116 49//116 29//116
f 48//117 64//117 30//117
f 64//118 109//118 30//118
f 109//119 62//119 30//119
f 62//120 48//120 30//120
f 31//121 137//121 101//121
f 101//122 110//122 31//122
f 31//123 170//123 104//123
f 104//124 50//124 31//124
f 51//125 61//125 32//125
f 61//126 111//126 32//126
f 32//127 167//127 101//127
f 101//128 51//128 32//128
f 113//129 125//129 33//129
f 33//130 184//130 112//130
f 112//131 61//131 33//131
f 33//132 141//132 113//132
f 47//133 62//133 34//133
f 62//134 124//134 34//134
f 124//135 125//135 34//135
f 34//136 173//136 47//136
f 35//137 142//137 106//137
f 106//138 123//138 35//138
f 123//139 126//139 35//139
f 35//140 174//140 52//140
f 36//141 164//141 122//141
f 36//142 182//142 127//142
f 36//143 177//143 117//143
f 36//144 151//144 66//144
f 67//145 121//145 37//145
f 37//146 181//146 128//146
f 37//147 180//147 120//147
f 120//148 67//148 37//148
f 38//149 165//149 95//149
f 95//150 129//150 38//150
f 38//151 179//151 88//151
f 88//152 93//152 38//152
f 39//153 162//153 99//153
f 99//154 130//154 39//154
f 39//155 178//155 84//155
f 84//156 90//156 39//156
f 94//157 72//157 40//157
f 40//158 149//158 74//158
f 40//159 152//159 75//159
f 40//160 151//160 117//160
f 117//161 131//161 40//161
f 131//162 94//162 40//162
f 123//163 65//163 41//163
f 41//164 146//164 59//164
f 41//165 176//165 132//165
f 132//166 123//166 41//166
f 42//167 145//167 116//167
f 42//168 176//168 133//168
f 42//169 175//169 54//169
f 42//170 144//170 55//170
f 43//171 157//171 84//171
f 43//172 178//172 134//172
f 134//173 114//173 43//173
f 43//174 140//174 79//174
f 124//175 103//175 44//175
f 44//176 144//176 54//176
f 54//177 135//177 44//177
f 44//178 184//178 124//178
f 45//179 160//179 88//179
f 88//180 136//180 45//180
f 45//181 173//181 113//181
f 45//182 141//182 82//182
f 1//183 136//183 179//183
f 119//184 156//184 78//184
f 1//185 78//185 138//185
f 47//186 173//186 136//186
f 2//187 78//187 156//187
f 87//188 157//188 79//188
f 2//189 79//189 140//189
f 2//190 48//190 138//190
f 81//191 159//191 86//191
f 3//192 86//192 158//192
f 3//193 80//193 139//193
f 49//194 142//194 81//194
f 80//195 158//195 85//195
f 85//196 155//196 46//196
f 4//197 46//197 137//197
f 4//198 50//198 139//198
f 112//199 184//199 135//199
f 135//200 175//200 115//200
f 5//201 115//201 143//201
f 102//202 168//202 112//202
f 6//203 111//203 168//203
f 102//204 143//204 58//204
f 6//205 58//205 148//205
f 53//206 167//206 111//206
f 7//207 134//207 178//207
f 118//208 159//208 81//208
f 7//209 81//209 142//209
f 7//210 52//210 174//210
f 46//211 155//211 83//211
f 8//212 83//212 160//212
f 82//213 141//213 51//213
f 8//214 51//214 137//214
f 60//215 146//215 56//215
f 9//216 56//216 147//216
f 9//217 57//217 148//217
f 58//218 143//218 60//218
f 10//219 133//219 176//219
f 59//220 146//220 60//220
f 10//221 60//221 143//221
f 10//222 115//222 175//222
f 110//223 167//223 53//223
f 11//224 53//224 148//224
f 11//225 57//225 147//225
f 63//226 170//226 110//226
f 12//227 109//227 171//227
f 12//228 105//228 145//228
f 12//229 55//229 144//229
f 103//230 169//230 109//230
f 108//231 170//231 63//231
f 13//232 63//232 147//232
f 56//233 146//233 65//233
f 13//234 65//234 172//234
f 14//235 107//235 183//235
f 132//236 176//236 116//236
f 14//237 116//237 145//237
f 105//238 171//238 107//238
f 120//239 180//239 131//239
f 131//240 177//240 73//240
f 15//241 73//241 153//241
f 15//242 76//242 154//242
f 77//243 166//243 100//243
f 100//244 165//244 93//244
f 16//245 93//245 160//245
f 16//246 83//246 155//246
f 130//247 182//247 122//247
f 17//248 122//248 164//248
f 92//249 159//249 118//249
f 118//250 178//250 130//250
f 91//251 163//251 98//251
f 18//252 98//252 166//252
f 77//253 155//253 85//253
f 18//254 85//254 158//254
f 92//255 164//255 97//255
f 19//256 97//256 163//256
f 91//257 158//257 86//257
f 19//258 86//258 159//258
f 20//259 89//259 161//259
f 96//260 162//260 90//260
f 20//261 90//261 157//261
f 87//262 156//262 89//262
f 21//263 129//263 181//263
f 121//264 161//264 89//264
f 21//265 89//265 156//265
f 119//266 179//266 129//266
f 128//267 181//267 95//267
f 22//268 95//268 165//268
f 71//269 150//269 94//269
f 22//270 94//270 180//270
f 69//271 163//271 97//271
f 23//272 97//272 164//272
f 23//273 66//273 151//273
f 75//274 152//274 69//274
f 127//275 182//275 99//275
f 24//276 99//276 162//276
f 68//277 153//277 73//277
f 24//278 73//278 177//278
f 25//279 68//279 162//279
f 96//280 161//280 67//280
f 25//281 67//281 154//281
f 25//282 76//282 153//282
f 26//283 70//283 166//283
f 98//284 163//284 69//284
f 26//285 69//285 152//285
f 26//286 74//286 149//286
f 71//287 165//287 100//287
f 100//288 166//288 70//288
f 70//289 149//289 72//289
f 27//290 72//290 150//290
f 114//291 174//291 126//291
f 28//292 126//292 183//292
f 107//293 171//293 64//293
f 28//294 64//294 140//294
f 29//295 49//295 139//295
f 104//296 170//296 108//296
f 29//297 108//297 172//297
f 106//298 142//298 49//298
f 48//299 140//299 64//299
f 64//300 171//300 109//300
f 109//301 169//301 62//301
f 62//302 138//302 48//302
f 31//303 50//303 137//303
f 101//304 167//304 110//304
f 31//305 110//305 170//305
f 104//306 139//306 50//306
f 51//307 141//307 61//307
f 61//308 168//308 111//308
f 32//309 111//309 167//309
f 101//310 137//310 51//310
f 113//311 173//311 125//311
f 33//312 125//312 184//312
f 112//313 168//313 61//313
f 33//314 61//314 141//314
f 47//315 138//315 62//315
f 62//316 169//316 124//316
f 124//317 184//317 125//317
f 34//318 125//318 173//318
f 35//319 52//319 142//319
f 106//320 172//320 123//320
f 123//321 183//321 126//321
f 35//322 126//322 174//322
f 36//323 66//323 164//323
f 36//324 122//324 182//324
f 36//325 127//325 177//325
f 36//326 117//326 151//326
f 67//327 161//327 121//327
f 37//328 121//328 181//328
f 37//329 128//329 180//329
f 120//330 154//330 67//330
f 38//331 93//331 165//331
f 95//332 181//332 129//332
f 38//333 129//333 179//333
f 88//334 160//334 93//334
f 39//335 90//335 162//335
f 99//336 182//336 130//336
f 39//337 130//337 178//337
f 84//338 157//338 90//338
f 94//339 150//339 72//339
f 40//340 72//340 149//340
f 40//341 74//341 152//341
f 40//342 75//342 151//342
f 117//343 177//343 131//343
f 131//344 180//344 94//344
f 123//345 172//345 65//345
f 41//346 65//346 146//346
f 41//347 59//347 176//347
f 132//348 183//348 123//348
f 42//349 55//349 145//349
f 42//350 116//350 176//350
f 42//351 133//351 175//351
f 42//352 54//352 144//352
f 43//353 79//353 157//353
f 43//354 84//354 178//354
f 134//355 174//355 114//355
f 43//356 114//356 140//356
f 124//357 169//357 103//357
f 44//358 103//358 144//358
f 54//359 175//359 135//359
f 44//360 135//360 184//360
f 45//361 82//361 160//361
f 88//362 179//362 136//362
f 45//363 136//363 173//363
f 45//364 113//364 141//364
