# Blender 4.1.1
# www.blender.org
mtllib fence.mtl
o Fence
v 2.945063 -0.010823 -0.082752
v 2.945063 1.086240 -0.082752
v 2.945063 -0.010823 0.082754
v 2.945063 1.086240 0.082754
v 2.777727 -0.010823 -0.082752
v 2.777727 1.086240 -0.082752
v 2.777727 -0.010823 0.082754
v 2.777727 1.086240 0.082754
v 0.084498 1.086240 0.082753
v 0.084498 -0.010823 0.082753
v 0.084498 1.086240 -0.082753
v 0.084498 -0.010823 -0.082753
v 2.905715 0.404853 -0.035311
v 2.905715 0.404853 0.035314
v 2.905715 0.195827 -0.035311
v 2.905715 0.195827 0.035314
v 2.905715 0.869968 -0.035311
v 2.905715 0.869968 0.035314
v 2.905715 0.660942 -0.035311
v 2.905715 0.660942 0.035314
v -2.945063 -0.010823 -0.082754
v -2.945063 1.086240 -0.082754
v -2.945063 -0.010823 0.082752
v -2.945063 1.086240 0.082752
v -2.777726 -0.010823 -0.082754
v -2.777726 1.086240 -0.082754
v -2.777726 -0.010823 0.082752
v -2.777726 1.086240 0.082752
v -0.084498 1.086240 0.082753
v -0.084498 -0.010823 0.082753
v -0.084498 1.086240 -0.082753
v -0.084498 -0.010823 -0.082753
v -2.941604 0.404853 -0.035314
v -0.000000 0.404853 -0.050156
v -2.941604 0.404853 0.035311
v -0.000000 0.404853 0.050156
v -2.941604 0.195827 -0.035314
v -0.000000 0.195827 -0.050156
v -2.941604 0.195827 0.035311
v -0.000000 0.195827 0.050156
v -2.941604 0.869968 -0.035314
v -0.000000 0.869968 -0.050156
v -2.941604 0.869968 0.035311
v -0.000000 0.869968 0.050156
v -2.941604 0.660942 -0.035314
v -0.000000 0.660942 -0.050156
v -2.941604 0.660942 0.035311
v -0.000000 0.660942 0.050156
v -2.619586 0.869968 -0.038282
v -2.531234 0.833945 -0.041251
v -2.453612 0.869968 -0.044219
v -2.370625 0.869968 -0.047188
v -2.370625 0.869968 0.047186
v -2.453612 0.869968 0.044218
v -2.531234 0.833945 0.041249
v -2.619586 0.869968 0.038280
v -2.379822 0.680102 0.047186
v -2.453612 0.660942 0.044218
v -2.536599 0.660942 0.041249
v -2.619586 0.660942 0.038280
v -2.379822 0.680102 -0.047188
v -2.453612 0.660942 -0.044219
v -2.536599 0.660942 -0.041251
v -2.619586 0.660942 -0.038282
v -0.268476 0.404853 -0.039024
v -0.211915 0.365765 -0.042734
v -0.155353 0.404853 -0.046445
v -0.155353 0.404853 0.046445
v -0.211915 0.365765 0.042734
v -0.268476 0.404853 0.039023
v -0.155353 0.244879 0.046445
v -0.211915 0.195827 0.042734
v -0.268476 0.195827 0.039023
v -0.155353 0.244879 -0.046445
v -0.211915 0.195827 -0.042734
v -0.268476 0.195827 -0.039024
v 1.185452 0.869968 -0.037786
v 1.099944 0.869968 -0.040260
v 1.014436 0.869968 -0.042734
v 0.928928 0.811396 -0.045208
v 0.843420 0.869968 -0.047681
v 0.843420 0.869968 0.047682
v 0.928928 0.811396 0.045208
v 1.014436 0.869968 0.042735
v 1.099944 0.869968 0.040261
v 1.185452 0.869968 0.037787
v 0.843420 0.682906 0.047682
v 0.928928 0.660942 0.045208
v 1.014436 0.660942 0.042735
v 1.099944 0.714632 0.040261
v 1.185452 0.660942 0.037787
v 0.843420 0.682906 -0.047681
v 0.928928 0.660942 -0.045208
v 1.014436 0.660942 -0.042734
v 1.099944 0.714632 -0.040260
v 1.185452 0.660942 -0.037786
v 2.605353 0.404853 -0.037008
v 2.605353 0.404853 0.037010
v 2.605353 0.195827 0.037010
v 2.605353 0.195827 -0.037008
v 2.674128 0.348361 0.036622
v 2.674128 0.195827 0.036622
v 2.674128 0.195827 -0.036620
v 2.674128 0.348361 -0.036620
vn 1.0000 -0.0000 -0.0000
vn -0.0000 -0.0000 1.0000
vn -1.0000 -0.0000 -0.0000
vn -0.0000 -0.0000 -1.0000
vn -0.0000 -1.0000 -0.0000
vn -0.0000 1.0000 -0.0000
vn 0.0050 -0.0000 1.0000
vn 0.0050 -0.0000 -1.0000
vn 0.0029 -0.0000 1.0000
vn 0.0260 -0.9997 -0.0000
vn 0.0029 -0.0000 -1.0000
vn -0.0239 -0.0000 0.9997
vn -0.3011 -0.9536 -0.0000
vn -0.0239 -0.0000 -0.9997
vn -0.0013 -0.0000 1.0000
vn -0.0081 -1.0000 -0.0000
vn -0.0012 0.0001 -1.0000
vn -0.0092 -0.0000 -1.0000
vn -0.0358 0.0011 -0.9994
vn -0.0357 0.0011 -0.9994
vn -0.0402 -0.0000 -0.9992
vn 0.2513 -0.9679 -0.0000
vn -0.0092 -0.0000 1.0000
vn -0.0336 -0.0000 0.9994
vn -0.0382 -0.0000 0.9993
vn -0.0357 0.0017 0.9994
vn 0.3775 0.9260 -0.0000
vn -0.4210 0.9071 -0.0000
vn -0.0014 -0.0000 -1.0000
vn -0.0655 -0.0000 -0.9979
vn 0.6552 -0.7555 -0.0000
vn -0.0014 -0.0000 1.0000
vn -0.0655 -0.0000 0.9979
vn 0.5685 0.8227 -0.0000
vn -0.5685 0.8227 -0.0000
vn 0.0014 -0.0000 -1.0000
vn 0.0289 -0.0000 -0.9996
vn -0.5318 -0.8469 -0.0000
vn 0.5318 -0.8469 -0.0000
vn -0.2488 -0.9686 -0.0000
vn 0.0014 -0.0000 1.0000
vn 0.0289 -0.0000 0.9996
vn -0.5651 0.8250 -0.0000
vn 0.5651 0.8250 -0.0000
vn 0.0056 -0.0000 -1.0000
vn 0.0056 -0.0000 1.0000
vn 0.6347 0.7727 -0.0000
vn -0.2370 0.9715 -0.0000
vn 0.0057 -0.0000 -1.0000
vn -0.0012 0.0001 1.0000
vn -0.0013 -0.0000 -1.0000
vn -0.0336 -0.0000 -0.9994
vn -0.0382 -0.0000 -0.9993
vn -0.0358 0.0017 -0.9994
vn -0.0358 0.0011 0.9994
vn -0.0402 -0.0000 0.9992
s 0
usemtl Brown
f 2//1 3//1 1//1
f 4//2 7//2 3//2
f 8//3 5//3 7//3
f 6//4 1//4 5//4
f 7//5 1//5 3//5
f 8//6 2//6 6//6
f 32//5 10//5 30//5
f 34//6 98//6 97//6
f 36//7 99//7 98//7
f 40//5 100//5 99//5
f 38//8 97//8 100//8
f 16//1 13//1 14//1
f 81//6 44//6 82//6
f 44//9 87//9 82//9
f 87//10 46//10 92//10
f 92//11 42//11 81//11
f 20//1 17//1 18//1
f 11//1 10//1 12//1
f 32//4 11//4 12//4
f 11//6 29//6 9//6
f 23//3 22//3 21//3
f 27//2 24//2 23//2
f 25//1 28//1 27//1
f 21//4 26//4 25//4
f 23//5 25//5 27//5
f 26//6 24//6 28//6
f 68//6 34//6 67//6
f 71//12 36//12 68//12
f 71//13 38//13 40//13
f 74//14 34//14 38//14
f 33//3 39//3 35//3
f 53//6 42//6 52//6
f 53//15 48//15 44//15
f 61//16 48//16 57//16
f 52//17 46//17 61//17
f 41//3 47//3 43//3
f 30//3 31//3 32//3
f 10//2 29//2 30//2
f 41//18 64//18 45//18
f 64//19 50//19 63//19
f 50//20 62//20 63//20
f 51//21 61//21 62//21
f 47//5 64//5 60//5
f 60//5 63//5 59//5
f 59//5 62//5 58//5
f 62//22 57//22 58//22
f 47//23 56//23 43//23
f 60//24 55//24 56//24
f 55//25 58//25 54//25
f 54//26 57//26 53//26
f 43//6 49//6 41//6
f 56//27 50//27 49//27
f 55//28 51//28 50//28
f 54//6 52//6 51//6
f 33//29 76//29 37//29
f 76//30 66//30 75//30
f 66//30 74//30 75//30
f 37//5 73//5 39//5
f 73//5 75//5 72//5
f 72//31 74//31 71//31
f 39//32 70//32 35//32
f 73//33 69//33 70//33
f 69//33 71//33 68//33
f 35//6 65//6 33//6
f 70//34 66//34 65//34
f 69//35 67//35 66//35
f 96//36 17//36 19//36
f 95//37 77//37 96//37
f 95//37 79//37 78//37
f 94//37 80//37 79//37
f 92//37 80//37 93//37
f 91//5 19//5 20//5
f 91//38 95//38 96//38
f 89//39 95//39 90//39
f 88//5 94//5 89//5
f 87//40 93//40 88//40
f 86//41 20//41 18//41
f 86//42 90//42 91//42
f 84//42 90//42 85//42
f 83//42 89//42 84//42
f 83//42 87//42 88//42
f 77//6 18//6 17//6
f 77//6 85//6 86//6
f 78//6 84//6 85//6
f 79//43 83//43 84//43
f 81//44 83//44 80//44
f 100//45 104//45 103//45
f 99//5 103//5 102//5
f 101//46 99//46 102//46
f 97//47 101//47 104//47
f 104//48 14//48 13//48
f 101//46 16//46 14//46
f 102//5 15//5 16//5
f 15//49 104//49 13//49
f 2//1 4//1 3//1
f 4//2 8//2 7//2
f 8//3 6//3 5//3
f 6//4 2//4 1//4
f 7//5 5//5 1//5
f 8//6 4//6 2//6
f 32//5 12//5 10//5
f 34//6 36//6 98//6
f 36//7 40//7 99//7
f 40//5 38//5 100//5
f 38//8 34//8 97//8
f 16//1 15//1 13//1
f 81//6 42//6 44//6
f 44//9 48//9 87//9
f 87//10 48//10 46//10
f 92//11 46//11 42//11
f 20//1 19//1 17//1
f 11//1 9//1 10//1
f 32//4 31//4 11//4
f 11//6 31//6 29//6
f 23//3 24//3 22//3
f 27//2 28//2 24//2
f 25//1 26//1 28//1
f 21//4 22//4 26//4
f 23//5 21//5 25//5
f 26//6 22//6 24//6
f 68//6 36//6 34//6
f 71//12 40//12 36//12
f 71//13 74//13 38//13
f 74//14 67//14 34//14
f 33//3 37//3 39//3
f 53//6 44//6 42//6
f 53//50 57//50 48//50
f 61//16 46//16 48//16
f 52//51 42//51 46//51
f 41//3 45//3 47//3
f 30//3 29//3 31//3
f 10//2 9//2 29//2
f 41//18 49//18 64//18
f 64//52 49//52 50//52
f 50//53 51//53 62//53
f 51//54 52//54 61//54
f 47//5 45//5 64//5
f 60//5 64//5 63//5
f 59//5 63//5 62//5
f 62//22 61//22 57//22
f 47//23 60//23 56//23
f 60//55 59//55 55//55
f 55//55 59//55 58//55
f 54//56 58//56 57//56
f 43//6 56//6 49//6
f 56//27 55//27 50//27
f 55//28 54//28 51//28
f 54//6 53//6 52//6
f 33//29 65//29 76//29
f 76//30 65//30 66//30
f 66//30 67//30 74//30
f 37//5 76//5 73//5
f 73//5 76//5 75//5
f 72//31 75//31 74//31
f 39//32 73//32 70//32
f 73//33 72//33 69//33
f 69//33 72//33 71//33
f 35//6 70//6 65//6
f 70//34 69//34 66//34
f 69//35 68//35 67//35
f 96//36 77//36 17//36
f 95//37 78//37 77//37
f 95//37 94//37 79//37
f 94//37 93//37 80//37
f 92//37 81//37 80//37
f 91//5 96//5 19//5
f 91//38 90//38 95//38
f 89//39 94//39 95//39
f 88//5 93//5 94//5
f 87//40 92//40 93//40
f 86//41 91//41 20//41
f 86//42 85//42 90//42
f 84//42 89//42 90//42
f 83//42 88//42 89//42
f 83//42 82//42 87//42
f 77//6 86//6 18//6
f 77//6 78//6 85//6
f 78//6 79//6 84//6
f 79//43 80//43 83//43
f 81//44 82//44 83//44
f 100//45 97//45 104//45
f 99//5 100//5 103//5
f 101//46 98//46 99//46
f 97//47 98//47 101//47
f 104//48 101//48 14//48
f 101//46 102//46 16//46
f 102//5 103//5 15//5
f 15//49 103//49 104//49
