# Blender 4.1.1
# www.blender.org
mtllib ShortStoneWall.mtl
o Bricks_RightStraight_Cube.066
v 0.785265 0.173591 -0.068213
v 0.785265 0.297422 -0.068213
v 0.785265 0.169814 0.068213
v 0.785265 0.309088 0.068213
v 0.677566 0.165284 -0.068213
v 0.677566 0.297422 -0.068213
v 0.677566 0.160996 0.068213
v 0.677566 0.306791 0.068213
v 0.788305 0.022795 -0.068213
v 0.788305 0.153443 -0.068213
v 0.788305 0.016837 0.068213
v 0.788305 0.171427 0.068213
v 0.566846 0.016837 -0.068213
v 0.566846 0.153262 -0.068213
v 0.566846 0.016837 0.068213
v 0.566846 0.160877 0.068213
v 0.666509 0.160996 -0.068213
v 0.666509 0.297422 -0.068213
v 0.666509 0.164338 0.068213
v 0.666509 0.297422 0.068213
v 0.448724 0.163740 -0.068213
v 0.448724 0.297422 -0.068213
v 0.448724 0.160996 0.068213
v 0.448724 0.297422 0.068213
v 0.788305 0.310728 -0.068213
v 0.788305 0.437333 -0.068213
v 0.788305 0.300908 0.068213
v 0.788305 0.437333 0.068213
v 0.566846 0.300908 -0.068213
v 0.566846 0.437333 -0.068213
v 0.566846 0.300908 0.068213
v 0.566846 0.437333 0.068213
v 0.555789 0.018746 -0.068213
v 0.555789 0.161885 -0.068213
v 0.555789 0.029441 0.068213
v 0.555789 0.153262 0.068213
v 0.317029 0.016837 -0.068213
v 0.317029 0.156337 -0.068213
v 0.317029 0.017562 0.068213
v 0.317029 0.153262 0.068213
v 0.437667 0.160996 -0.068213
v 0.437667 0.297422 -0.068213
v 0.437667 0.160996 0.068213
v 0.437667 0.311430 0.068213
v 0.198907 0.170408 -0.068213
v 0.198907 0.297970 -0.068213
v 0.198907 0.166884 0.068213
v 0.198907 0.300527 0.068213
v 0.555789 0.303416 -0.068213
v 0.555789 0.443164 -0.068213
v 0.555789 0.309041 0.068213
v 0.555789 0.441413 0.068213
v 0.317029 0.312795 -0.068213
v 0.317029 0.437333 -0.068213
v 0.317029 0.308822 0.068213
v 0.317029 0.437333 0.068213
v 0.305971 0.023577 -0.068213
v 0.305971 0.158892 -0.068213
v 0.305971 0.016837 0.068213
v 0.305971 0.157405 0.068213
v 0.067211 0.016837 -0.068213
v 0.067211 0.157668 -0.068213
v 0.067211 0.018091 0.068213
v 0.067211 0.159461 0.068213
v 0.187849 0.160996 -0.068213
v 0.187849 0.297422 -0.068213
v 0.187849 0.160996 0.063703
v 0.187849 0.297422 0.063703
v 0.305971 0.300908 -0.068213
v 0.305971 0.437333 -0.068213
v 0.305971 0.306558 0.068213
v 0.305971 0.442986 0.068213
v 0.067211 0.300908 -0.068213
v 0.067211 0.437333 -0.068213
v 0.067211 0.300908 0.068213
v 0.067211 0.440367 0.068213
v -0.052673 0.162382 -0.068213
v -0.052673 0.162112 0.063703
v -0.052673 0.299355 0.063703
v -0.052673 0.297422 -0.068213
v 0.055762 0.014097 -0.068213
v 0.055762 0.150522 -0.068213
v 0.055762 0.014982 0.068213
v 0.055762 0.150522 0.068213
v -0.182999 0.014097 -0.068213
v -0.182999 0.150522 -0.068213
v -0.182999 0.014097 0.068213
v -0.182999 0.150522 0.068213
v -0.062360 0.162124 -0.068213
v -0.062360 0.299204 -0.068213
v -0.062360 0.164771 0.068213
v -0.062360 0.306321 0.068213
v -0.301121 0.159702 -0.068213
v -0.301121 0.294682 -0.068213
v -0.301121 0.158257 0.068213
v -0.301121 0.306757 0.068213
v 0.055762 0.298168 -0.068213
v 0.055762 0.440264 -0.068213
v 0.055762 0.305981 0.068213
v 0.055762 0.437552 0.068213
v -0.182999 0.307137 -0.068213
v -0.182999 0.434594 -0.068213
v -0.182999 0.314866 0.068213
v -0.182999 0.434870 0.068213
v -0.194056 0.014097 -0.068213
v -0.194056 0.150522 -0.068213
v -0.194056 0.021624 0.068213
v -0.194056 0.151038 0.068213
v -0.432817 0.014097 -0.068213
v -0.432817 0.150522 -0.068213
v -0.432817 0.014097 0.068213
v -0.432817 0.150522 0.068213
v -0.312178 0.161581 -0.068213
v -0.312178 0.294682 -0.068213
v -0.312178 0.160395 0.068213
v -0.312178 0.294682 0.068213
v -0.550939 0.160245 -0.068213
v -0.550939 0.300248 -0.068213
v -0.550939 0.174731 0.068213
v -0.550939 0.294682 0.068213
v -0.194056 0.298168 -0.068213
v -0.194056 0.441799 -0.068213
v -0.194056 0.304179 0.068213
v -0.194056 0.436260 0.068213
v -0.432817 0.298168 -0.068213
v -0.432817 0.437940 -0.068213
v -0.432817 0.298168 0.068213
v -0.432817 0.445903 0.068213
v -0.443874 0.016622 -0.068213
v -0.443874 0.154845 -0.068213
v -0.443874 0.023344 0.068213
v -0.443874 0.153234 0.068213
v -0.731400 0.014481 -0.068213
v -0.731400 0.150522 -0.068213
v -0.731400 0.014097 0.068213
v -0.731400 0.161915 0.068213
v -0.561996 0.158257 -0.068213
v -0.561996 0.296970 -0.068213
v -0.561996 0.158257 0.068213
v -0.561996 0.300573 0.068213
v -0.735762 0.158257 -0.068213
v -0.735762 0.294682 -0.068213
v -0.735762 0.168251 0.068213
v -0.735762 0.294682 0.068213
v -0.443874 0.298168 -0.068213
v -0.443874 0.440448 -0.068213
v -0.443874 0.306631 0.068213
v -0.443874 0.434594 0.068213
v -0.731400 0.298168 -0.068213
v -0.731400 0.434594 -0.068213
v -0.731400 0.298168 0.068213
v -0.731400 0.441398 0.068213
vn 1.0000 -0.0000 -0.0000
vn -1.0000 -0.0000 -0.0000
vn -0.0000 -0.0000 -1.0000
vn 0.0769 -0.9967 -0.0276
vn -0.0000 0.9977 -0.0685
vn 0.0269 -0.9987 -0.0436
vn -0.0008 0.9984 -0.0557
vn 0.0153 -0.9996 0.0245
vn -0.0000 1.0000 -0.0000
vn 0.0442 -0.9964 -0.0717
vn 0.0495 -0.9957 0.0781
vn -0.0000 0.9997 0.0225
vn -0.0247 -0.9997 -0.0000
vn 0.0023 0.9998 -0.0187
vn -0.0392 -0.9984 0.0412
vn -0.0171 0.9999 -0.0000
vn 0.0282 -0.9984 -0.0493
vn -0.0000 -0.0000 1.0000
vn 0.0086 0.9999 -0.0131
vn -0.0079 0.9999 -0.0073
vn 0.0008 1.0000 0.0001
vn 0.0009 1.0000 -0.0000
vn 0.0236 -0.9989 0.0414
vn -0.0000 0.9998 -0.0222
vn 0.0007 -1.0000 -0.0004
vn -0.0058 -1.0000 0.0006
vn -0.0059 -1.0000 -0.0000
vn 0.0037 -1.0000 0.0065
vn 0.0273 -0.9994 0.0194
vn -0.0189 0.9959 -0.0881
vn -0.0375 -0.9977 0.0571
vn -0.0112 0.9999 -0.0020
vn 0.0315 -0.9980 0.0551
vn 0.0056 -0.9999 -0.0087
vn 0.0233 0.9989 0.0408
vn 0.0251 -0.9987 0.0440
vn 0.0403 0.9975 -0.0582
vn 0.0321 -0.9983 0.0492
vn 0.0301 0.9961 -0.0832
vn -0.0000 -1.0000 -0.0000
vn -0.0132 0.9999 -0.0000
vn 0.0294 -0.9977 0.0619
vn 0.0236 0.9985 -0.0498
vn 0.0816 -0.9962 -0.0313
vn -0.0212 0.9961 -0.0852
vn -0.0472 0.9903 -0.1305
vn -0.0126 -0.9997 -0.0201
vn 0.0080 -1.0000 0.0053
vn -0.0232 0.9977 0.0631
vn -0.0394 -0.9989 -0.0258
vn -0.0454 0.9937 -0.1020
vn 0.0009 -0.9996 -0.0291
vn -0.0244 0.9996 0.0128
vn -0.0053 -0.9999 0.0092
vn -0.0051 0.9999 0.0109
vn 0.0071 0.9997 -0.0254
vn 0.0040 0.9997 -0.0246
vn 0.0086 0.9998 -0.0152
vn -0.0110 0.9991 -0.0414
vn -0.0016 -1.0000 -0.0054
vn -0.0006 -1.0000 -0.0034
vn -0.0071 -1.0000 -0.0020
vn 0.0101 -0.9999 -0.0106
vn 0.0018 0.9986 -0.0521
vn -0.0371 -0.9977 0.0565
vn -0.0237 0.9995 0.0199
vn -0.0022 1.0000 -0.0038
vn -0.0596 -0.9926 0.1054
vn -0.0161 0.9990 0.0406
vn 0.0074 -1.0000 -0.0028
vn -0.0150 0.9998 0.0118
vn -0.0573 -0.9957 0.0729
vn -0.0339 0.9991 -0.0264
vn -0.0203 0.9989 0.0429
vt 0.418936 0.888283
vt 0.405668 0.875906
vt 0.418936 0.876272
vt 0.405635 0.916301
vt 0.392368 0.929533
vt 0.392368 0.916717
vt 0.322125 0.946904
vt 0.311651 0.934893
vt 0.322125 0.934087
vt 0.429386 0.943066
vt 0.418903 0.929838
vt 0.429386 0.929832
vt 0.429378 0.929551
vt 0.418905 0.916305
vt 0.429378 0.916301
vt 0.405668 0.889156
vt 0.392401 0.875906
vt 0.405668 0.876484
vt 0.392365 0.918884
vt 0.379097 0.932116
vt 0.379097 0.918884
vt 0.392663 0.829588
vt 0.379957 0.851058
vt 0.379395 0.829577
vt 0.392368 0.897404
vt 0.379097 0.897398
vt 0.418903 0.943064
vt 0.405635 0.930156
vt 0.418903 0.929832
vt 0.405635 0.943675
vt 0.392368 0.930708
vt 0.405635 0.930442
vt 0.379120 0.897394
vt 0.392401 0.875919
vt 0.392401 0.897398
vt 0.325838 0.899146
vt 0.338839 0.920270
vt 0.325571 0.920270
vt 0.379097 0.920196
vt 0.365831 0.899073
vt 0.379097 0.899069
vt 0.392365 0.933807
vt 0.379097 0.946087
vt 0.379097 0.932855
vt 0.428412 0.910631
vt 0.415144 0.897398
vt 0.428412 0.897398
vt 0.311651 0.899173
vt 0.324916 0.920293
vt 0.311651 0.920296
vt 0.339267 0.920542
vt 0.351580 0.899061
vt 0.352535 0.920542
vt 0.392372 0.852746
vt 0.379105 0.874225
vt 0.379100 0.852736
vt 0.365826 0.920543
vt 0.352562 0.899066
vt 0.365826 0.899063
vt 0.379096 0.934079
vt 0.365828 0.921233
vt 0.379096 0.920196
vt 0.418903 0.929533
vt 0.418903 0.916371
vt 0.312005 0.852739
vt 0.325571 0.829688
vt 0.325571 0.852848
vt 0.379100 0.875906
vt 0.365835 0.852747
vt 0.379097 0.852736
vt 0.392663 0.830936
vt 0.405930 0.844169
vt 0.392663 0.844169
vt 0.415358 0.842810
vt 0.428012 0.829577
vt 0.428355 0.842810
vt 0.311660 0.876012
vt 0.324909 0.899170
vt 0.311651 0.899170
vt 0.326433 0.852835
vt 0.338839 0.875965
vt 0.325571 0.875995
vt 0.338841 0.899143
vt 0.325573 0.899146
vt 0.365826 0.934100
vt 0.352559 0.921091
vt 0.365826 0.920545
vt 0.378326 0.934079
vt 0.366215 0.947312
vt 0.365828 0.934079
vt 0.339292 0.875903
vt 0.352562 0.852745
vt 0.352562 0.875902
vt 0.351946 0.852736
vt 0.339267 0.829577
vt 0.352858 0.829577
vt 0.366127 0.829577
vt 0.352858 0.852731
vt 0.365833 0.875906
vt 0.379097 0.875908
vt 0.352535 0.921196
vt 0.339267 0.934176
vt 0.338839 0.920392
vt 0.325571 0.933930
vt 0.339267 0.829647
vt 0.326108 0.852739
vt 0.325571 0.829577
vt 0.365833 0.852742
vt 0.352566 0.875900
vt 0.352562 0.852736
vt 0.418936 0.875906
vt 0.428364 0.889138
vt 0.418936 0.889138
vt 0.392447 0.916225
vt 0.405715 0.897475
vt 0.405715 0.916301
vt 0.339274 0.875906
vt 0.352535 0.899061
vt 0.339267 0.899061
vt 0.415144 0.916223
vt 0.405719 0.897400
vt 0.311651 0.933540
vt 0.324908 0.920843
vt 0.324908 0.934087
vt 0.405640 0.866263
vt 0.418908 0.853030
vt 0.418908 0.866263
vt 0.366127 0.852736
vt 0.365830 0.899063
vt 0.352564 0.875906
vt 0.365828 0.875900
vt 0.311657 0.876008
vt 0.324928 0.852850
vt 0.324928 0.876008
vt 0.392507 0.852736
vt 0.405640 0.871562
vt 0.392372 0.871562
vt 0.428335 0.852736
vt 0.418908 0.865860
vt 0.418908 0.852762
vt 0.415358 0.848401
vt 0.405931 0.829578
vt 0.415358 0.829577
vt 0.397714 0.919638
vt 0.380859 0.902812
vt 0.397714 0.902702
vt 0.431724 0.929916
vt 0.414870 0.912979
vt 0.431724 0.912979
vt 0.431191 0.777908
vt 0.414336 0.807549
vt 0.414336 0.777908
vt 0.380862 0.873061
vt 0.380859 0.902702
vt 0.448045 0.794925
vt 0.431191 0.778236
vt 0.448045 0.777908
vt 0.363282 0.878941
vt 0.346428 0.895877
vt 0.346428 0.879120
vt 0.380158 0.872889
vt 0.363305 0.902530
vt 0.363305 0.872889
vt 0.381119 0.843250
vt 0.397794 0.813778
vt 0.397794 0.843420
vt 0.397747 0.843426
vt 0.414590 0.873061
vt 0.397733 0.873066
vt 0.448579 0.912279
vt 0.431724 0.895609
vt 0.448579 0.894639
vt 0.448966 0.777938
vt 0.463791 0.794844
vt 0.448045 0.794876
vt 0.363298 0.849300
vt 0.346435 0.878940
vt 0.346428 0.849298
vt 0.364413 0.813605
vt 0.380859 0.843246
vt 0.363305 0.843246
vt 0.345558 0.843390
vt 0.328683 0.873014
vt 0.328683 0.843372
vt 0.414647 0.843248
vt 0.397794 0.813605
vt 0.414647 0.813607
vt 0.380159 0.919466
vt 0.363305 0.903464
vt 0.380159 0.902530
vt 0.345537 0.919610
vt 0.328683 0.902673
vt 0.345537 0.902673
vt 0.431444 0.843420
vt 0.414590 0.843420
vt 0.380886 0.843421
vt 0.397733 0.873061
vt 0.380859 0.873060
vt 0.414177 0.929925
vt 0.397733 0.912988
vt 0.414323 0.912988
vt 0.448607 0.874864
vt 0.431752 0.890446
vt 0.431752 0.873066
vt 0.414647 0.843246
vt 0.431501 0.813605
vt 0.431500 0.843246
vt 0.397472 0.807549
vt 0.380863 0.777908
vt 0.397307 0.777908
vt 0.380150 0.843246
vt 0.363307 0.843248
vt 0.448299 0.861251
vt 0.431444 0.844166
vt 0.448299 0.843420
vt 0.431724 0.895627
vt 0.345536 0.873032
vt 0.328691 0.873034
vt 0.345951 0.813731
vt 0.328683 0.813731
vt 0.311795 0.849299
vt 0.328643 0.878939
vt 0.311774 0.878939
vt 0.414320 0.807549
vt 0.397472 0.777908
vt 0.414336 0.777911
vt 0.328628 0.917674
vt 0.311774 0.901349
vt 0.328628 0.900515
vt 0.414587 0.896052
vt 0.414587 0.912941
vt 0.329621 0.813605
vt 0.346427 0.778036
vt 0.346427 0.813731
vt 0.363329 0.777912
vt 0.380176 0.813602
vt 0.363305 0.813605
vt 0.346428 0.897823
vt 0.363282 0.915044
vt 0.346428 0.915044
vt 0.431724 0.927975
vt 0.448579 0.929216
vt 0.346435 0.813605
vt 0.363297 0.849298
vt 0.414587 0.873066
vt 0.397733 0.894638
vt 0.414905 0.894639
vt 0.431752 0.894638
vt 0.448355 0.831268
vt 0.431501 0.814656
vt 0.448355 0.813605
vt 0.431191 0.813590
vt 0.448045 0.796654
vt 0.448045 0.813590
vt 0.311779 0.900513
vt 0.328632 0.878942
vt 0.328632 0.900515
vt 0.328628 0.777908
vt 0.311774 0.813602
vt 0.311774 0.777908
vt 0.346457 0.777908
vt 0.363305 0.813602
vt 0.346428 0.813602
vt 0.311781 0.813605
vt 0.328637 0.849298
vt 0.311774 0.849298
vt 0.418903 0.929560
vt 0.338839 0.934104
vt 0.379097 0.875906
vt 0.392372 0.874225
vt 0.311651 0.852848
vt 0.380158 0.902529
vt 0.431724 0.912279
vt 0.363298 0.878941
vt 0.345558 0.873032
vt 0.414647 0.813605
vt 0.380203 0.872889
vt 0.345536 0.902673
vt 0.414870 0.894639
vt 0.405668 0.889415
vt 0.311651 0.946904
vt 0.418903 0.943073
vt 0.392401 0.890900
vt 0.392365 0.932855
vt 0.392663 0.851068
vt 0.405635 0.943064
vt 0.392368 0.943675
vt 0.338839 0.899146
vt 0.365828 0.920192
vt 0.392365 0.946087
vt 0.415144 0.910631
vt 0.324915 0.899170
vt 0.352562 0.920545
vt 0.365828 0.933243
vt 0.405635 0.929832
vt 0.311651 0.829577
vt 0.405930 0.829577
vt 0.415607 0.829577
vt 0.324906 0.876008
vt 0.338839 0.852806
vt 0.338841 0.875996
vt 0.352559 0.933931
vt 0.378326 0.947312
vt 0.339267 0.852736
vt 0.339834 0.852736
vt 0.366127 0.852735
vt 0.365837 0.899068
vt 0.352535 0.934320
vt 0.339267 0.852806
vt 0.365833 0.875898
vt 0.428364 0.875906
vt 0.392368 0.897398
vt 0.352535 0.875903
vt 0.405715 0.916224
vt 0.405640 0.852736
vt 0.379395 0.852736
vt 0.352562 0.899063
vt 0.428335 0.866048
vt 0.405930 0.848401
vt 0.380859 0.919638
vt 0.414870 0.929916
vt 0.431191 0.807549
vt 0.397710 0.873061
vt 0.431191 0.795809
vt 0.363282 0.897376
vt 0.380859 0.813605
vt 0.431724 0.911943
vt 0.463791 0.777908
vt 0.380159 0.813605
vt 0.397798 0.843247
vt 0.363305 0.919530
vt 0.328683 0.919610
vt 0.431444 0.873061
vt 0.397733 0.843420
vt 0.397733 0.929925
vt 0.448607 0.889755
vt 0.380176 0.807549
vt 0.431444 0.860563
vt 0.346428 0.843372
vt 0.328642 0.849298
vt 0.397474 0.807549
vt 0.311774 0.917474
vt 0.329352 0.777908
vt 0.380176 0.777908
vt 0.363286 0.813602
vt 0.414870 0.894638
vt 0.414870 0.873066
vt 0.431501 0.830542
vt 0.329352 0.813602
vt 0.363305 0.777908
vt 0.328626 0.813602
s 0
usemtl Texture.003
f 2/1/1 3/2/1 1/3/1
f 7/4/2 6/5/2 5/6/2
f 6/7/3 1/8/3 5/9/3
f 3/10/4 5/11/4 1/12/4
f 8/13/5 2/14/5 6/15/5
f 10/16/1 11/17/1 9/18/1
f 15/19/2 14/20/2 13/21/2
f 14/22/3 9/23/3 13/24/3
f 11/25/6 13/21/6 9/26/6
f 18/27/1 19/28/1 17/29/1
f 24/30/2 21/31/2 23/32/2
f 16/33/7 10/34/7 14/35/7
f 21/36/3 18/37/3 17/38/3
f 23/39/8 17/40/8 19/41/8
f 25/42/1 28/43/1 27/44/1
f 31/45/2 30/46/2 29/47/2
f 20/48/9 22/49/9 24/50/9
f 30/51/3 25/52/3 29/53/3
f 27/54/10 29/55/10 25/56/10
f 28/57/9 30/58/9 32/59/9
f 34/60/1 35/61/1 33/62/1
f 40/63/2 37/4/2 39/64/2
f 38/65/3 33/66/3 37/67/3
f 39/68/11 33/69/11 35/70/11
f 42/71/1 43/72/1 41/73/1
f 48/74/2 45/75/2 47/76/2
f 36/77/12 38/78/12 40/79/12
f 45/80/3 42/81/3 41/82/3
f 47/82/13 41/83/13 43/84/13
f 50/85/1 51/86/1 49/87/1
f 56/88/2 53/89/2 55/90/2
f 48/91/14 42/92/14 46/93/14
f 53/94/3 50/95/3 49/96/3
f 51/97/15 53/98/15 49/96/15
f 52/41/16 54/99/16 56/100/16
f 57/101/1 60/102/1 59/51/1
f 63/103/2 62/104/2 61/38/2
f 62/105/3 57/106/3 61/107/3
f 59/108/17 61/109/17 57/110/17
f 66/111/1 67/112/1 65/113/1
f 68/114/18 78/115/18 67/116/18
f 60/117/19 62/118/19 64/119/19
f 80/120/20 68/121/21 66/46/22
f 70/122/1 71/123/1 69/124/1
f 75/125/2 74/126/2 73/127/2
f 74/24/3 69/128/3 73/97/3
f 75/129/23 69/130/23 71/131/23
f 76/132/24 70/133/24 74/134/24
f 77/135/3 66/136/3 65/137/3
f 78/138/2 80/139/2 77/140/2
f 78/141/25 65/142/26 67/143/27
f 8/13/18 3/2/18 4/267/18
f 63/103/18 60/117/18 64/268/18
f 16/33/18 11/17/18 12/269/18
f 24/50/18 19/28/18 20/48/18
f 31/270/18 28/57/18 32/59/18
f 40/79/18 35/61/18 36/77/18
f 56/100/18 51/86/18 52/41/18
f 43/72/18 48/74/18 47/76/18
f 76/132/18 71/123/18 72/271/18
f 2/1/1 4/280/1 3/2/1
f 7/4/2 8/32/2 6/5/2
f 6/7/3 2/281/3 1/8/3
f 3/10/44 7/282/44 5/11/44
f 8/13/45 4/267/45 2/14/45
f 10/16/1 12/283/1 11/17/1
f 15/19/2 16/284/2 14/20/2
f 14/22/3 10/285/3 9/23/3
f 11/25/40 15/19/40 13/21/40
f 18/27/1 20/286/1 19/28/1
f 24/30/2 22/287/2 21/31/2
f 16/33/46 12/269/46 10/34/46
f 21/36/3 22/288/3 18/37/3
f 23/39/47 21/289/47 17/40/47
f 25/42/1 26/290/1 28/43/1
f 31/45/2 32/291/2 30/46/2
f 20/48/9 18/292/9 22/49/9
f 30/51/3 26/119/3 25/52/3
f 27/54/40 31/270/40 29/55/40
f 28/57/9 26/293/9 30/58/9
f 34/60/1 36/294/1 35/61/1
f 40/63/2 38/295/2 37/4/2
f 38/65/3 34/296/3 33/66/3
f 39/68/48 37/99/48 33/69/48
f 42/71/1 44/297/1 43/72/1
f 48/74/2 46/298/2 45/75/2
f 36/77/49 34/299/49 38/78/49
f 45/80/3 46/300/3 42/81/3
f 47/82/50 45/301/50 41/83/50
f 50/85/1 52/302/1 51/86/1
f 56/88/2 54/303/2 53/89/2
f 48/91/51 44/304/51 42/92/51
f 53/94/3 54/305/3 50/95/3
f 51/97/52 55/306/52 53/98/52
f 52/41/53 50/307/53 54/99/53
f 57/101/1 58/308/1 60/102/1
f 63/103/2 64/268/2 62/104/2
f 62/105/3 58/309/3 57/106/3
f 59/108/54 63/310/54 61/109/54
f 66/111/1 68/311/1 67/112/1
f 68/114/18 79/312/18 78/115/18
f 60/117/55 58/313/55 62/118/55
f 80/120/56 79/314/57 68/121/58
f 70/122/1 72/50/1 71/123/1
f 75/125/2 76/315/2 74/126/2
f 74/24/3 70/316/3 69/128/3
f 75/129/40 73/317/40 69/130/40
f 76/132/59 72/271/59 70/133/59
f 77/135/3 80/315/3 66/136/3
f 78/138/2 79/318/2 80/139/2
f 78/141/60 77/319/61 65/142/62
f 8/13/18 7/282/18 3/2/18
f 63/103/18 59/51/18 60/117/18
f 16/33/18 15/19/18 11/17/18
f 24/50/18 23/39/18 19/28/18
f 31/270/18 27/44/18 28/57/18
f 40/79/18 39/68/18 35/61/18
f 56/100/18 55/306/18 51/86/18
f 43/72/18 44/304/18 48/74/18
f 76/132/18 75/129/18 71/123/18
usemtl Texture.003
f 82/144/1 83/145/1 81/146/1
f 88/147/2 85/148/2 87/149/2
f 86/150/3 81/151/3 85/152/3
f 87/153/28 81/146/28 83/154/28
f 90/155/1 91/156/1 89/157/1
f 95/158/2 94/159/2 93/160/2
f 88/161/9 82/162/9 86/163/9
f 94/164/3 89/165/3 93/166/3
f 95/167/29 89/168/29 91/169/29
f 98/170/1 99/171/1 97/172/1
f 103/173/2 102/174/2 101/175/2
f 96/176/30 90/177/30 94/178/30
f 101/179/3 98/180/3 97/181/3
f 99/182/31 101/183/31 97/184/31
f 100/185/32 102/186/32 104/187/32
f 106/188/1 107/189/1 105/190/1
f 112/191/2 109/192/2 111/193/2
f 110/194/3 105/168/3 109/195/3
f 111/196/33 105/197/33 107/198/33
f 113/199/1 116/200/1 115/201/1
f 119/202/2 118/203/2 117/204/2
f 112/205/9 106/206/9 110/207/9
f 117/208/3 114/209/3 113/210/3
f 115/211/34 117/163/34 113/212/34
f 122/213/1 123/214/1 121/215/1
f 127/148/2 126/216/2 125/149/2
f 120/217/35 114/192/35 118/218/35
f 126/219/3 121/184/3 125/220/3
f 127/221/36 121/222/36 123/223/36
f 124/224/37 126/225/37 128/226/37
f 130/227/1 131/228/1 129/229/1
f 135/200/2 134/230/2 133/231/2
f 134/232/3 129/233/3 133/234/3
f 135/235/38 129/236/38 131/237/38
f 138/238/1 139/239/1 137/240/1
f 143/241/2 142/170/2 141/242/2
f 132/243/39 134/244/39 136/178/39
f 142/245/3 137/246/3 141/169/3
f 139/247/40 141/204/40 137/248/40
f 146/249/1 147/250/1 145/251/1
f 151/252/2 150/253/2 149/254/2
f 144/255/41 138/256/41 142/257/41
f 150/258/3 145/259/3 149/260/3
f 151/261/42 145/262/42 147/263/42
f 148/264/43 150/265/43 152/266/43
f 88/161/18 83/145/18 84/272/18
f 143/241/18 140/223/18 144/273/18
f 96/176/18 91/156/18 92/274/18
f 103/275/18 100/185/18 104/187/18
f 112/205/18 107/189/18 108/276/18
f 119/277/18 116/278/18 120/217/18
f 136/178/18 131/228/18 132/243/18
f 127/148/18 124/224/18 128/279/18
f 152/266/18 147/250/18 148/264/18
f 82/144/1 84/320/1 83/145/1
f 88/147/2 86/321/2 85/148/2
f 86/150/3 82/322/3 81/151/3
f 87/153/40 85/323/40 81/146/40
f 90/155/1 92/324/1 91/156/1
f 95/158/2 96/325/2 94/159/2
f 88/161/9 84/272/9 82/162/9
f 94/164/3 90/326/3 89/165/3
f 95/167/63 93/195/63 89/168/63
f 98/170/1 100/327/1 99/171/1
f 103/173/2 104/328/2 102/174/2
f 96/176/64 92/274/64 90/177/64
f 101/179/3 102/329/3 98/180/3
f 99/182/65 103/275/65 101/183/65
f 100/185/66 98/330/66 102/186/66
f 106/188/1 108/331/1 107/189/1
f 112/191/2 110/332/2 109/192/2
f 110/194/3 106/333/3 105/168/3
f 111/196/40 109/334/40 105/197/40
f 113/199/1 114/335/1 116/200/1
f 119/202/2 120/336/2 118/203/2
f 112/205/67 108/276/67 106/206/67
f 117/208/3 118/337/3 114/209/3
f 115/211/68 119/277/68 117/163/68
f 122/213/1 124/338/1 123/214/1
f 127/148/2 128/279/2 126/216/2
f 120/217/9 116/278/9 114/192/9
f 126/219/3 122/339/3 121/184/3
f 127/221/40 125/340/40 121/222/40
f 124/224/69 122/341/69 126/225/69
f 130/227/1 132/342/1 131/228/1
f 135/200/2 136/246/2 134/230/2
f 134/232/3 130/343/3 129/233/3
f 135/235/70 133/344/70 129/236/70
f 138/238/1 140/325/1 139/239/1
f 143/241/2 144/273/2 142/170/2
f 132/243/71 130/345/71 134/244/71
f 142/245/3 138/346/3 137/246/3
f 139/247/72 143/347/72 141/204/72
f 146/249/1 148/348/1 147/250/1
f 151/252/2 152/324/2 150/253/2
f 144/255/73 140/223/73 138/256/73
f 150/258/3 146/349/3 145/259/3
f 151/261/40 149/350/40 145/262/40
f 148/264/74 146/351/74 150/265/74
f 88/161/18 87/153/18 83/145/18
f 143/241/18 139/239/18 140/223/18
f 96/176/18 95/167/18 91/156/18
f 103/275/18 99/171/18 100/185/18
f 112/205/18 111/196/18 107/189/18
f 119/277/18 115/201/18 116/278/18
f 136/178/18 135/235/18 131/228/18
f 127/148/18 123/214/18 124/224/18
f 152/266/18 151/261/18 147/250/18
